<?xml version="1.0" standalone="no"?>
<svg xmlns:xlink="http://www.w3.org/1999/xlink" id="wave" style="transform:rotate(0deg); transition: 0.3s" viewBox="0 0 1440 120" version="1.1" xmlns="http://www.w3.org/2000/svg"><defs><linearGradient id="sw-gradient-0" x1="0" x2="0" y1="1" y2="0"><stop stop-color="rgba(34, 40, 49, 1)" offset="0%"/><stop stop-color="rgba(150.685, 67.685, 67.685, 1)" offset="100%"/></linearGradient></defs><path style="transform:translate(0, 0px); opacity:1" fill="url(#sw-gradient-0)" d="M0,36L34.3,34C68.6,32,137,28,206,32C274.3,36,343,48,411,52C480,56,549,52,617,50C685.7,48,754,48,823,44C891.4,40,960,32,1029,34C1097.1,36,1166,48,1234,44C1302.9,40,1371,20,1440,16C1508.6,12,1577,24,1646,30C1714.3,36,1783,36,1851,48C1920,60,1989,84,2057,94C2125.7,104,2194,100,2263,82C2331.4,64,2400,32,2469,26C2537.1,20,2606,40,2674,46C2742.9,52,2811,44,2880,34C2948.6,24,3017,12,3086,8C3154.3,4,3223,8,3291,24C3360,40,3429,68,3497,82C3565.7,96,3634,96,3703,84C3771.4,72,3840,48,3909,40C3977.1,32,4046,40,4114,40C4182.9,40,4251,32,4320,24C4388.6,16,4457,8,4526,18C4594.3,28,4663,56,4731,58C4800,60,4869,36,4903,24L4937.1,12L4937.1,120L4902.9,120C4868.6,120,4800,120,4731,120C4662.9,120,4594,120,4526,120C4457.1,120,4389,120,4320,120C4251.4,120,4183,120,4114,120C4045.7,120,3977,120,3909,120C3840,120,3771,120,3703,120C3634.3,120,3566,120,3497,120C3428.6,120,3360,120,3291,120C3222.9,120,3154,120,3086,120C3017.1,120,2949,120,2880,120C2811.4,120,2743,120,2674,120C2605.7,120,2537,120,2469,120C2400,120,2331,120,2263,120C2194.3,120,2126,120,2057,120C1988.6,120,1920,120,1851,120C1782.9,120,1714,120,1646,120C1577.1,120,1509,120,1440,120C1371.4,120,1303,120,1234,120C1165.7,120,1097,120,1029,120C960,120,891,120,823,120C754.3,120,686,120,617,120C548.6,120,480,120,411,120C342.9,120,274,120,206,120C137.1,120,69,120,34,120L0,120Z"/></svg>